<svg width="30" height="30" viewBox="0 0 30 30" fill="none" xmlns="http://www.w3.org/2000/svg">
<path fill-rule="evenodd" clip-rule="evenodd" d="M5.44954 3.80583L6.03648 2.63197C6.45996 1.78501 7.32561 1.25 8.27254 1.25H21.7275C22.6744 1.25 23.54 1.78501 23.9635 2.63197L24.5505 3.80583C25.467 4.00294 26.2148 4.70521 26.4494 5.64366L27.0744 8.14366C27.4093 9.48315 26.5949 10.8405 25.2554 11.1754C25.1174 11.2099 24.9768 11.2325 24.8351 11.2431L22.3341 28.75H7.66588L5.16491 11.2432C3.87109 11.148 2.85097 10.0681 2.85097 8.75C2.85097 8.5456 2.87604 8.34196 2.92561 8.14366L3.55061 5.64366C3.78523 4.70521 4.53303 4.00294 5.44954 3.80583ZM7.69126 11.25H22.3087L20.1659 26.25H9.83412L7.69126 11.25ZM5.97597 6.25H7.02254L8.27254 3.75H21.7275L22.9775 6.25H24.024L24.649 8.75H5.35097L5.97597 6.25Z" fill="#EDB471"/>
</svg>
