<svg width="30" height="30" viewBox="0 0 30 30" fill="none" xmlns="http://www.w3.org/2000/svg">
<g id="shopping bag">
<path id="icon" fill-rule="evenodd" clip-rule="evenodd" d="M26.1825 2.5L27.4248 24.8613C27.5014 26.2399 26.4459 27.4196 25.0673 27.4962C24.998 27.4994 24.998 27.4994 24.9286 27.5H5.07138C3.69067 27.5 2.57138 26.3807 2.57138 25C2.57202 24.9306 2.57202 24.9306 2.57523 24.8613L3.81753 2.5H26.1825ZM6.18249 5L5.07138 25H24.9286L23.8175 5H6.18249ZM11.25 7.5H8.75001V10.625C8.75001 13.6259 11.6541 16.25 15 16.25C18.346 16.25 21.25 13.6259 21.25 10.625V7.5H18.75V10.625C18.75 12.1855 17.0186 13.75 15 13.75C12.9814 13.75 11.25 12.1855 11.25 10.625V7.5Z" fill="#EDB471"/>
</g>
</svg>
